<svg width="112" height="112" viewBox="0 0 112 112" fill="none" xmlns="http://www.w3.org/2000/svg">
<g id="Group 2907">
<circle id="Ellipse 173" cx="55.9453" cy="56.0354" r="55.5" fill="url(#paint0_linear_1835_60)"/>
<g id="Group 2878">
<path id="Vector" d="M32.6028 55.9978C32.6028 48.1264 32.6028 40.255 32.6028 32.3835C32.5604 31.252 32.8599 30.1345 33.4614 29.1802C34.063 28.2259 34.938 27.4806 35.969 27.0437C36.5883 26.7478 37.2643 26.5945 37.949 26.5947H62.6251C62.9235 26.6092 63.2153 26.6871 63.4817 26.8237C63.7482 26.9604 63.9833 27.1525 64.1714 27.3874L71.8466 35.1539C74.053 37.3893 76.25 39.6342 78.447 41.8409C78.7192 42.0939 78.9349 42.4028 79.0796 42.7472C79.2243 43.0915 79.2949 43.4631 79.2863 43.8372C79.2863 55.7272 79.2863 67.6173 79.2863 79.5072C79.3299 80.3008 79.2078 81.0948 78.9281 81.8373C78.6484 82.5799 78.2174 83.2542 77.6632 83.8167C77.1089 84.3791 76.4438 84.817 75.7113 85.1015C74.9788 85.386 74.1954 85.511 73.412 85.4681H38.4488C37.6707 85.5079 36.8931 85.3818 36.1661 85.0982C35.439 84.8146 34.7786 84.3799 34.2278 83.8218C33.6769 83.2637 33.2478 82.5947 32.9679 81.8581C32.688 81.1215 32.5636 80.3337 32.6028 79.5455C32.6028 71.6931 32.6028 63.8438 32.6028 55.9978ZM35.5164 55.9978C35.5164 63.8693 35.5164 71.7439 35.5164 79.6217C35.4799 80.0073 35.5278 80.3963 35.6571 80.7608C35.7864 81.1253 35.9936 81.4564 36.2639 81.7303C36.5342 82.0042 36.8611 82.2141 37.2209 82.3451C37.5807 82.476 37.9646 82.5245 38.3452 82.4876C50.0813 82.4876 61.8204 82.4876 73.5628 82.4876C73.943 82.5228 74.3263 82.4729 74.6853 82.3413C75.0443 82.2098 75.3702 81.9998 75.6401 81.7263C75.9101 81.4528 76.1173 81.1226 76.2472 80.7589C76.377 80.3952 76.4263 80.0069 76.3915 79.6217C76.3915 68.2731 76.3915 56.9245 76.3915 45.5759C76.3915 44.955 76.2502 44.7447 75.5996 44.7543C72.5257 44.7543 69.4424 44.7543 66.3685 44.7543C65.7042 44.7797 65.0419 44.666 64.423 44.42C63.8042 44.1741 63.2421 43.8015 62.772 43.3253C62.302 42.8491 61.9342 42.2796 61.6914 41.6526C61.4487 41.0257 61.3364 40.3549 61.3616 39.6819C61.3616 36.5391 61.3616 33.4057 61.3616 30.2628C61.3616 29.6706 61.1729 29.5081 60.6166 29.5177C58.7968 29.5177 56.977 29.5177 55.1571 29.5177H38.4299C38.0479 29.4912 37.6645 29.5438 37.3031 29.6718C36.9416 29.7999 36.6097 30.0009 36.3272 30.2628C36.0426 30.5517 35.8221 30.8989 35.6806 31.2811C35.5391 31.6633 35.4801 32.0718 35.507 32.4791C35.507 40.3315 35.507 48.1837 35.507 56.0361M64.2752 31.8487C64.2752 32.0207 64.2752 32.1829 64.2752 32.3453C64.2752 34.7717 64.2752 37.1982 64.2752 39.6246C64.2288 39.9247 64.2536 40.2317 64.3478 40.5201C64.4419 40.8086 64.6026 41.0703 64.8165 41.2832C65.0303 41.4962 65.2912 41.6544 65.5775 41.7448C65.8638 41.8351 66.1672 41.8549 66.4626 41.8026C68.8388 41.8026 71.2118 41.8026 73.5817 41.8026C73.7702 41.8026 73.9966 41.8981 74.1003 41.8026L64.3033 31.8867" fill="white"/>
<path id="Vector_2" d="M54.4709 73.3063H67.5205C67.7298 73.2784 67.9426 73.2983 68.1436 73.3649C68.3446 73.4315 68.529 73.543 68.6836 73.6915C68.8383 73.84 68.9593 74.022 69.0383 74.2243C69.1173 74.4266 69.1524 74.6445 69.1408 74.8623C69.1362 75.1803 69.0288 75.4873 68.836 75.735C68.6432 75.9828 68.3759 76.157 68.0764 76.2298C67.7265 76.3058 67.3698 76.3425 67.0123 76.339H41.92C41.6281 76.3438 41.3364 76.3239 41.0476 76.2794C40.8587 76.2664 40.6742 76.2149 40.5045 76.1282C40.3348 76.0415 40.1835 75.9212 40.0588 75.774C39.8071 75.4766 39.6799 75.0879 39.7053 74.6937C39.7308 74.2994 39.9066 73.9319 40.1943 73.6717C40.482 73.4115 40.8579 73.2801 41.2393 73.3063H54.4709Z" fill="white"/>
<path id="Vector_3" d="M50.3786 48.9473C51.5043 48.8911 52.6329 48.9662 53.7404 49.171C55.653 49.6052 57.3392 50.7053 58.485 52.266C59.6308 53.8267 60.1582 55.7418 59.9688 57.6548C59.9688 58.0331 59.8152 58.3958 59.542 58.6633C59.2687 58.9308 58.8982 59.0812 58.5117 59.0812C58.1253 59.0812 57.7547 58.9308 57.4815 58.6633C57.2082 58.3958 57.0546 58.0331 57.0546 57.6548C57.0546 57.142 57.0548 56.6294 56.9881 56.126C56.8516 55.0265 56.3316 54.0067 55.5161 53.239C54.7006 52.4713 53.6395 52.0027 52.5119 51.9121C50.9295 51.712 49.3261 51.7338 47.7501 51.9772C46.6226 52.1897 45.6034 52.7737 44.8619 53.6319C44.1204 54.49 43.7012 55.5708 43.674 56.6945C43.674 57.0208 43.674 57.3472 43.674 57.6735C43.6594 58.0462 43.4992 58.3992 43.2262 58.6594C42.9533 58.9197 42.5886 59.0674 42.2076 59.0719C41.8379 59.0679 41.4832 58.9275 41.2148 58.6786C40.9464 58.4296 40.784 58.0906 40.76 57.7295C40.5444 55.6708 41.1599 53.6112 42.475 51.991C43.7901 50.3709 45.7005 49.3187 47.7978 49.0592C48.6549 48.966 49.512 49.0032 50.3595 48.9753" fill="white"/>
<path id="Vector_4" d="M50.3621 36.7468C51.4684 36.7469 52.5498 37.0754 53.469 37.6911C54.3882 38.3067 55.1037 39.1816 55.5249 40.2046C55.9461 41.2276 56.0541 42.3526 55.8348 43.4369C55.6156 44.5213 55.079 45.5161 54.2935 46.2951C53.508 47.0741 52.5088 47.6022 51.4227 47.8123C50.3365 48.0225 49.2125 47.9054 48.1931 47.4756C47.1736 47.0459 46.3047 46.3229 45.6968 45.3986C45.0889 44.4742 44.7693 43.3902 44.7785 42.2839C44.7908 40.8111 45.3844 39.4029 46.4302 38.3658C47.476 37.3288 48.8893 36.7468 50.3621 36.7468ZM50.3621 39.6132C49.9975 39.5917 49.6323 39.6448 49.289 39.7695C48.9458 39.8942 48.6315 40.0878 48.3657 40.3384C48.1 40.5889 47.8884 40.8911 47.7437 41.2265C47.5989 41.5619 47.5242 41.9234 47.5242 42.2887C47.5242 42.6539 47.5989 43.0152 47.7437 43.3506C47.8884 43.6859 48.1 43.9882 48.3657 44.2387C48.6315 44.4893 48.9458 44.6829 49.289 44.8076C49.6323 44.9323 49.9975 44.9857 50.3621 44.9642C50.7267 44.9857 51.0919 44.9323 51.4351 44.8076C51.7784 44.6829 52.0927 44.4893 52.3585 44.2387C52.6242 43.9882 52.836 43.6859 52.9808 43.3506C53.1255 43.0152 53.2002 42.6539 53.2002 42.2887C53.2002 41.9234 53.1255 41.5619 52.9808 41.2265C52.836 40.8911 52.6242 40.5889 52.3585 40.3384C52.0927 40.0878 51.7784 39.8942 51.4351 39.7695C51.0919 39.6448 50.7267 39.5917 50.3621 39.6132Z" fill="white"/>
<path id="Vector_5" d="M49.3906 69.2272H41.4831C41.216 69.2472 40.9479 69.2173 40.6906 69.1386C40.4043 69.0474 40.1534 68.8609 39.9753 68.6068C39.7973 68.3528 39.7015 68.0446 39.7022 67.7284C39.705 67.4226 39.7958 67.1251 39.9624 66.875C40.1289 66.625 40.3633 66.4342 40.6346 66.3283C40.9348 66.222 41.2509 66.1754 41.5671 66.1904H57.1396C57.3648 66.1851 57.5898 66.2048 57.811 66.2493C58.1588 66.3097 58.4725 66.5058 58.6902 66.7989C58.9079 67.092 59.0138 67.461 58.9868 67.8326C58.9599 68.2043 58.8022 68.5516 58.5447 68.8062C58.2873 69.0608 57.949 69.2039 57.5965 69.2075C56.8785 69.2075 56.1604 69.2075 55.4518 69.2075H49.3813" fill="white"/>
</g>
</g>
<defs>
<linearGradient id="paint0_linear_1835_60" x1="55.9453" y1="0.5354" x2="55.9453" y2="111.535" gradientUnits="userSpaceOnUse">
<stop stop-color="#47B192"/>
<stop offset="1" stop-color="#387DC5"/>
</linearGradient>
</defs>
</svg>
