<svg width="111" height="112" viewBox="0 0 111 112" fill="none" xmlns="http://www.w3.org/2000/svg">
<g id="Group 2909">
<ellipse id="Ellipse 174" cx="55.9707" cy="56.0354" rx="55" ry="55.5" fill="url(#paint0_linear_1835_86)"/>
<g id="Group 2880">
<path id="Vector" d="M72.0576 29.8841C72.4111 30.0664 72.7004 30.3514 72.887 30.7012C73.0736 31.051 73.1485 31.4491 73.1021 31.8424C73.1021 36.2525 73.1021 40.6713 73.1021 45.0899C73.0802 45.2783 73.1224 45.4684 73.2216 45.6304C73.3209 45.7923 73.4715 45.9167 73.6499 45.9837C75.4009 46.8633 76.8899 48.1836 77.9684 49.8133C79.0468 51.4429 79.6773 53.3252 79.797 55.2724C80.0368 58.1586 79.8397 61.0533 79.8825 63.9395C79.8825 64.1353 79.8825 64.3396 79.8825 64.5439C79.8226 65.0803 80.0453 65.3187 80.5932 65.3953C80.8414 65.427 81.0782 65.5182 81.2834 65.6607C81.4885 65.8033 81.6557 65.9931 81.771 66.214C81.8863 66.4349 81.9462 66.6802 81.9453 66.9291C81.9444 67.1779 81.883 67.423 81.7662 67.6431C81.6216 67.9215 81.397 68.151 81.1212 68.3026C80.8453 68.4541 80.5306 68.5209 80.2165 68.4944H73.573C72.9052 68.4944 72.8795 68.4943 72.9052 69.1583C72.9734 69.854 72.8985 70.5564 72.6851 71.2224C72.4717 71.8883 72.1242 72.504 71.6639 73.0322C71.0565 73.6807 70.273 74.1402 69.4084 74.3548C68.5437 74.5693 67.6351 74.53 66.7926 74.2413C65.9477 73.958 65.206 73.4326 64.6606 72.7312C64.1152 72.0298 63.7906 71.1837 63.7276 70.2993C63.6862 69.8976 63.6662 69.4941 63.6676 69.0904C63.6676 68.6391 63.5392 68.4774 63.0683 68.4774C60.8338 68.4774 58.6079 68.4774 56.3734 68.4774C56.0938 68.4959 55.8141 68.443 55.5609 68.3238C55.3077 68.2046 55.0894 68.023 54.9266 67.7962C54.7733 67.5885 54.6751 67.3456 54.6413 67.0901C54.6074 66.8347 54.6389 66.5748 54.7328 66.3346C54.8267 66.0944 54.98 65.8817 55.1784 65.716C55.3769 65.5503 55.6143 65.4371 55.8684 65.3868C56.7245 65.1569 56.7245 65.1568 56.7245 64.2629V59.0781C56.7245 58.2693 56.7244 58.2693 55.9282 58.2693H32.1195C31.7805 58.2837 31.4408 58.255 31.1091 58.1841C30.8592 58.1037 30.63 57.9699 30.4377 57.7919C30.2455 57.6139 30.0947 57.3961 29.9961 57.154C29.9961 48.1861 29.9961 39.2209 29.9961 30.2587C29.9961 29.8841 30.0903 29.833 30.4413 29.833H72.0748M33.1125 34.7114C33.1125 34.9243 33.1125 35.0096 33.1125 35.0862C33.1125 41.5907 33.1125 48.0867 33.1125 54.5913C33.1125 54.9914 33.2494 55.1105 33.6432 55.1105H56.2365C56.6816 55.1105 56.8186 54.9403 56.87 54.5402C57.2803 51.594 58.8198 48.9195 61.1667 47.0758C63.5137 45.2321 66.4865 44.3621 69.4636 44.6472C69.7889 44.6472 69.9687 44.647 69.9687 44.2809C69.9687 41.25 69.9687 38.2249 69.9687 35.2053C69.9687 35.0946 69.9687 34.9498 69.8745 34.8902C69.7803 34.8306 69.6689 34.9755 69.5833 35.0521L61.981 41.3949L52.7863 49.0573C52.6384 49.2228 52.4577 49.3562 52.2556 49.4491C52.0535 49.542 51.8344 49.5923 51.6118 49.5971C51.3892 49.6019 51.1679 49.5611 50.962 49.477C50.756 49.3928 50.5697 49.2674 50.4148 49.1084L36.2973 37.3167L33.1554 34.6944M68.2565 65.2847C70.8762 65.2847 73.4959 65.2847 76.1157 65.2847C76.578 65.2847 76.7149 65.1483 76.7149 64.68C76.7149 61.8449 76.7149 59.0013 76.7149 56.1662C76.7273 55.0136 76.4993 53.871 76.0454 52.8104C75.5916 51.7497 74.9216 50.794 74.0778 50.0037C73.234 49.2133 72.2346 48.6055 71.1428 48.2184C70.051 47.8313 68.8904 47.6734 67.7342 47.7547C66.1699 47.8335 64.661 48.3565 63.3864 49.2618C62.1119 50.1672 61.1251 51.417 60.5428 52.863C60.0785 53.9368 59.862 55.1005 59.9093 56.2685C59.9093 59.078 59.9093 61.879 59.9093 64.6886C59.9093 65.1909 60.0034 65.3188 60.4914 65.3103C63.0598 65.3103 65.6967 65.3103 68.2908 65.3103M35.9292 32.9577L36.2459 33.2471C41.2342 37.4132 46.2254 41.582 51.2195 45.7538C51.5106 46.0007 51.6904 45.9411 51.9473 45.7538L65.6453 34.3198L67.2035 32.9916L35.9292 32.9577ZM68.342 68.5113C66.7068 68.5113 66.7068 68.5113 66.878 70.0182C66.8878 70.2073 66.9354 70.3927 67.0181 70.5632C67.1008 70.7338 67.2171 70.8861 67.3598 71.0114C67.5026 71.1367 67.6691 71.2324 67.8495 71.2928C68.03 71.3533 68.2206 71.3773 68.4105 71.3635C69.3352 71.2443 69.8917 70.8356 69.7547 68.9881C69.6777 68.0516 68.8985 68.6986 68.5474 68.5113C68.4795 68.4986 68.4099 68.4986 68.342 68.5113Z" fill="white"/>
<path id="Vector_2" d="M53.3191 82.2201C50.8814 82.1356 48.5083 81.3677 46.4411 79.9941C44.3738 78.6205 42.6863 76.6905 41.5501 74.4003C40.4528 72.3265 39.8767 69.988 39.8771 67.6097C39.8559 67.1729 39.9946 66.7444 40.2643 66.4135C40.534 66.0827 40.9138 65.8751 41.3242 65.8345C41.527 65.825 41.7296 65.8583 41.9203 65.9322C42.111 66.0061 42.2861 66.1193 42.4353 66.2653C42.5846 66.4113 42.7051 66.5873 42.7901 66.783C42.875 66.9787 42.9226 67.1903 42.9302 67.4056C42.9667 68.6083 43.1467 69.8013 43.4656 70.9561C44.0803 73.0441 45.2461 74.9015 46.825 76.3079C48.4039 77.7144 50.3296 78.6109 52.374 78.8915C52.8759 78.9803 53.3945 78.9804 53.9048 79.0159C54.2977 79.0385 54.6676 79.2189 54.9396 79.5206C55.2115 79.8224 55.3649 80.2226 55.3686 80.6401C55.3642 81.0655 55.2017 81.472 54.9167 81.7711C54.6317 82.0702 54.2471 82.2379 53.8462 82.2379C53.6622 82.2379 53.4782 82.2379 53.2942 82.2379" fill="white"/>
<path id="Vector_3" d="M53.6111 75.8582C51.8502 75.7799 50.1677 75.0398 48.8461 73.7622C47.5244 72.4847 46.6442 70.7477 46.3535 68.8429C46.2775 68.3654 46.2452 67.8805 46.2574 67.3959C46.2757 66.9958 46.4263 66.6168 46.6811 66.3295C46.9359 66.0423 47.2773 65.8664 47.6417 65.835C47.9921 65.8152 48.3372 65.9349 48.6136 66.1718C48.89 66.4086 49.0791 66.7468 49.1461 67.1242C49.2342 67.6153 49.2262 68.1239 49.3302 68.6061C49.5432 69.6628 50.0587 70.6172 50.8014 71.3302C51.5442 72.0432 52.4753 72.4775 53.4591 72.5698L53.9713 72.631C54.3576 72.6485 54.7216 72.8334 54.9835 73.145C55.2453 73.4567 55.3835 73.8695 55.3675 74.2928C55.3516 74.716 55.1829 75.1152 54.8985 75.4022C54.6141 75.6891 54.2374 75.8405 53.8512 75.8231H53.6111" fill="white"/>
</g>
</g>
<defs>
<linearGradient id="paint0_linear_1835_86" x1="55.9707" y1="0.5354" x2="55.9707" y2="111.535" gradientUnits="userSpaceOnUse">
<stop stop-color="#47B192"/>
<stop offset="1" stop-color="#387DC5"/>
</linearGradient>
</defs>
</svg>
