<svg width="112" height="112" viewBox="0 0 112 112" fill="none" xmlns="http://www.w3.org/2000/svg">
<g id="Group 2908">
<circle id="Ellipse 172" cx="56.4219" cy="56.0354" r="55.5" fill="url(#paint0_linear_1835_80)"/>
<g id="Group 2875">
<path id="Vector" d="M57.7047 31.578C58.787 31.7506 59.8498 32.0294 60.8777 32.4101C65.5872 34.3572 68.4528 37.8355 69.1837 42.8863C69.5201 45.0657 69.2771 47.2952 68.4795 49.3506C67.6819 51.4059 66.3577 53.2144 64.6402 54.5939C64.5073 54.702 64.3828 54.8268 64.2084 54.9933C65.1313 55.2932 66.0331 55.6546 66.9078 56.075C67.1402 56.1843 67.3487 56.3384 67.5216 56.5285C67.6945 56.7185 67.8284 56.9408 67.9156 57.1826C68.0027 57.4245 68.0414 57.6811 68.0295 57.9379C68.0177 58.1948 67.9555 58.4469 67.8464 58.6796C67.7374 58.9124 67.5835 59.1213 67.3938 59.2946C67.2041 59.4678 66.9823 59.6018 66.7409 59.6891C66.4994 59.7764 66.2433 59.8153 65.9869 59.8035C65.7305 59.7916 65.479 59.7291 65.2466 59.6198C63.575 58.8353 61.807 58.2757 59.9889 57.9556C55.8697 57.2361 51.6299 57.7621 47.8103 59.4664C43.9907 61.1707 40.7644 63.976 38.5428 67.5248C37.2655 69.5478 36.3572 71.782 35.86 74.1233C35.7723 74.4209 35.7568 74.7352 35.8149 75.0399C35.8731 75.3447 36.003 75.631 36.194 75.8753C36.3849 76.1195 36.6314 76.3146 36.9128 76.4441C37.1942 76.5736 37.5025 76.6336 37.8119 76.6196C37.9946 76.6196 38.1939 76.6196 38.3766 76.6196H60.9773C61.3429 76.5878 61.71 76.6591 62.0373 76.8252C62.3646 76.9914 62.639 77.2459 62.8296 77.56C63.0132 77.8542 63.1143 78.1925 63.1223 78.5394C63.1302 78.8863 63.0447 79.2289 62.8747 79.5312C62.7047 79.8335 62.4565 80.0843 62.1562 80.2572C61.8559 80.4302 61.5147 80.519 61.1684 80.514C57.0154 80.514 52.9371 80.514 48.8173 80.514C45.2125 80.514 41.6077 80.4558 38.0195 80.514C36.6108 80.5646 35.2301 80.1107 34.1251 79.234C33.02 78.3572 32.2629 77.1148 31.9893 75.7294C31.9778 75.6833 31.961 75.6385 31.9395 75.5961V73.6825C31.9395 73.5909 31.9977 73.4993 32.0226 73.4078C32.9144 69.2363 34.8584 65.3633 37.6691 62.1586C40.4798 58.9538 44.0635 56.5242 48.0781 55.1015C48.1861 55.0599 48.3356 55.1016 48.3854 54.9018L48.0117 54.5524C46.2966 53.1735 44.975 51.3657 44.1802 49.3116C43.3854 47.2574 43.1455 45.0297 43.4848 42.853C44.1742 37.8021 47.0399 34.3322 51.7411 32.3851C52.7715 32.0034 53.837 31.7247 54.9222 31.553L57.7047 31.578ZM56.2512 53.6454C58.0481 53.647 59.8052 53.1143 61.2998 52.1148C62.7943 51.1154 63.9592 49.6941 64.6469 48.0309C65.3346 46.3677 65.5141 44.5374 65.1627 42.7719C64.8113 41.0065 63.9448 39.3853 62.673 38.1135C61.4012 36.8417 59.7812 35.9767 58.0183 35.628C56.2554 35.2792 54.4289 35.4624 52.77 36.1543C51.1111 36.8463 49.6944 38.0157 48.6995 39.5148C47.7046 41.0139 47.1761 42.7753 47.1811 44.5755C47.1744 45.7699 47.4046 46.9536 47.8583 48.0581C48.3119 49.1626 48.9801 50.1657 49.8238 51.0095C50.6676 51.8533 51.6703 52.5209 52.7736 52.9733C53.877 53.4258 55.059 53.6542 56.2512 53.6454Z" fill="white"/>
<path id="Vector_2" d="M76.5699 69.6883H78.7788C79.0512 69.6711 79.3244 69.708 79.5815 69.7966C79.8386 69.8853 80.0741 70.0238 80.2734 70.2037C80.4727 70.3835 80.6315 70.6008 80.7401 70.8422C80.8487 71.0836 80.9047 71.3438 80.9047 71.6069C80.9047 71.87 80.8487 72.1302 80.7401 72.3716C80.6315 72.6129 80.4727 72.8302 80.2734 73.0101C80.0741 73.1899 79.8386 73.3285 79.5815 73.4171C79.3244 73.5057 79.0512 73.5426 78.7788 73.5254C77.2181 73.5254 75.649 73.5254 74.0798 73.5254C73.6875 73.5254 73.5425 73.6323 73.5511 74.035C73.5511 75.555 73.5511 77.0832 73.5511 78.6033C73.5511 79.111 73.3417 79.5981 72.969 79.9571C72.5964 80.3162 72.091 80.5178 71.564 80.5178C71.037 80.5178 70.5316 80.3162 70.159 79.9571C69.7864 79.5981 69.577 79.111 69.577 78.6033C69.577 77.0914 69.577 75.5879 69.577 74.0761C69.577 73.6324 69.4235 73.5172 68.98 73.5254C67.3853 73.5254 65.7905 73.5254 64.1873 73.5254C63.7177 73.5237 63.264 73.3619 62.9065 73.0687C62.549 72.7754 62.3109 72.3695 62.2343 71.9232C62.1575 71.461 62.2568 70.9876 62.5138 70.5904C62.7709 70.1933 63.1684 69.8993 63.6329 69.7623C63.872 69.7013 64.1194 69.6762 64.3663 69.6883C65.9099 69.6883 67.462 69.6883 69.0141 69.6883C69.432 69.6883 69.577 69.5814 69.5684 69.1541C69.5684 67.6505 69.5684 66.1388 69.5684 64.6269C69.5684 64.1192 69.7778 63.6321 70.1505 63.2731C70.5231 62.914 71.0284 62.7124 71.5554 62.7124C72.0824 62.7124 72.5879 62.914 72.9605 63.2731C73.3331 63.6321 73.5425 64.1192 73.5425 64.6269C73.5425 66.1306 73.5425 67.6423 73.5425 69.1541C73.5425 69.5732 73.6874 69.6965 74.1138 69.6801C74.9667 69.6801 75.7428 69.6801 76.553 69.6801" fill="white"/>
</g>
</g>
<defs>
<linearGradient id="paint0_linear_1835_80" x1="56.4219" y1="0.5354" x2="56.4219" y2="111.535" gradientUnits="userSpaceOnUse">
<stop stop-color="#47B192"/>
<stop offset="1" stop-color="#387DC5"/>
</linearGradient>
</defs>
</svg>
